<?xml version="1.0" encoding="iso-8859-1"?>
<!-- Generator: Adobe Illustrator 19.0.0, SVG Export Plug-In . SVG Version: 6.00 Build 0)  -->
<svg version="1.1" id="Capa_1" xmlns="http://www.w3.org/2000/svg" xmlns:xlink="http://www.w3.org/1999/xlink" x="0px" y="0px"
	 viewBox="0 0 512 512" style="enable-background:new 0 0 512 512;" xml:space="preserve">
<path style="fill:#FD003A;" d="M512,211h-90V60h45c24.853,0,45,20.147,45,45V211z"/>
<path style="fill:#1689FC;" d="M512,331h-90V181h75c8.284,0,15,6.716,15,15V331z"/>
<path style="fill:#00B5F1;" d="M467,452h-45V301h75c8.284,0,15,6.716,15,15v91C512,431.853,491.853,452,467,452z"/>
<path style="fill:#57555C;" d="M105,0H45C20.186,0,0,20.186,0,45v422c0,24.814,20.186,45,45,45h60l15-33.749V22.489L105,0z"/>
<path style="fill:#FEDB41;" d="M452,45v422c0,24.899-20.099,45-45,45H105V0h302C431.901,0,452,20.099,452,45z"/>
<path style="fill:#FFAE34;" d="M452,45v422c0,24.899-20.099,45-45,45H271V0h136C431.901,0,452,20.099,452,45z"/>
<g>
	<path style="fill:#787780;" d="M150,75c0,8.401-6.599,15-15,15H75c-8.401,0-15-6.599-15-15s6.599-15,15-15h60
		C143.401,60,150,66.599,150,75z"/>
	<path style="fill:#787780;" d="M150,196c0,8.399-6.599,15-15,15H75c-8.401,0-15-6.601-15-15c0-8.401,6.599-15,15-15h60
		C143.401,181,150,187.599,150,196z"/>
	<path style="fill:#787780;" d="M150,316c0,8.399-6.599,15-15,15H75c-8.401,0-15-6.601-15-15c0-8.401,6.599-15,15-15h60
		C143.401,301,150,307.599,150,316z"/>
	<path style="fill:#787780;" d="M150,437c0,8.399-6.599,15-15,15H75c-8.401,0-15-6.601-15-15c0-8.401,6.599-15,15-15h60
		C143.401,422,150,428.599,150,437z"/>
	<path style="fill:#787780;" d="M361,376c0,8.399-6.599,15-15,15H196c-8.401,0-15-6.601-15-15c0-8.401,6.599-15,15-15h150
		C354.401,361,361,367.599,361,376z"/>
</g>
<path style="fill:#57555C;" d="M271,211c-49.501,0-90,40.499-90,90v15c0,8.401,6.599,15,15,15h150c8.401,0,15-6.599,15-15v-15
	C361,251.499,320.501,211,271,211z"/>
<path style="fill:#3C3A41;" d="M361,301v15c0,8.401-6.599,15-15,15h-75V211C320.501,211,361,251.499,361,301z"/>
<path style="fill:#787780;" d="M271,121c-32.999,0-60,27.001-60,60s27.001,60,60,60s60-27.001,60-60S303.999,121,271,121z"/>
<g>
	<path style="fill:#57555C;" d="M331,181c0,32.999-27.001,60-60,60V121C303.999,121,331,148.001,331,181z"/>
	<path style="fill:#57555C;" d="M361,376c0,8.399-6.599,15-15,15h-75v-30h75C354.401,361,361,367.599,361,376z"/>
</g>
<g>
</g>
<g>
</g>
<g>
</g>
<g>
</g>
<g>
</g>
<g>
</g>
<g>
</g>
<g>
</g>
<g>
</g>
<g>
</g>
<g>
</g>
<g>
</g>
<g>
</g>
<g>
</g>
<g>
</g>
</svg>
